P3
7 7
255
0 0 0 127 127 127 255 255 255 127 255 255 0 255 255 50 127 127 100 0 0
127 0 127 191 127 127 255 255 127 127 191 191 0 127 255 25 113 127 50 100 0
255 0 255 255 127 127 255 255 0 127 127 127 0 0 255 0 100 127 0 200 0
127 127 127 191 127 63 255 127 0 152 88 88 50 50 177 25 75 113 0 100 50
0 255 0 127 127 0 255 0 0 177 50 50 100 100 100 50 50 100 0 0 100
100 227 0 113 138 25 127 50 50 138 50 100 150 50 150 100 50 100 50 50 50
200 200 0 100 150 50 0 100 100 100 50 150 200 0 200 150 50 100 100 100 0
