P3
4 4
255
0 0 0 255 255 255 0 255 255 100 0 0
255 0 255 255 255 0 0 0 255 0 200 0
0 255 0 255 0 0 100 100 100 0 0 100
200 200 0 0 100 100 200 0 200 100 100 0
